<svg width="571" height="151" viewBox="0 0 571 151" fill="none" xmlns="http://www.w3.org/2000/svg">
<path d="M305.135 37.9914C311.12 37.9914 316.077 38.9274 320.005 40.799C320.842 41.1693 321.634 41.5685 322.382 41.9914H322.398C333.129 48.4283 339.448 57.3931 343.993 66.2492L355.851 93.3703C356.786 90.9371 358.002 87.1933 359.498 82.1399C360.994 76.9928 362.772 71.4241 364.829 65.4348C365.203 64.2183 365.671 62.8145 366.232 61.2238C366.887 59.5394 367.588 57.9006 368.336 56.3098C369.084 54.6257 369.879 53.2688 370.721 52.2395L362.725 52.6604V41.9914H387.696V50.9758C384.797 51.6309 382.365 53.4089 380.401 56.3098C378.531 59.2108 376.847 62.7676 375.351 66.9787L357.814 117.095C355.196 124.675 352.718 130.899 350.38 135.765C348.042 140.725 345.423 144.375 342.523 146.715C339.624 149.054 336.023 150.224 331.722 150.224C328.168 150.224 325.128 149.148 322.603 146.995C320.171 144.937 318.955 142.176 318.955 138.713C318.955 136.186 319.75 133.94 321.34 131.975C323.023 130.103 325.174 129.12 327.793 129.027C329.85 128.933 331.581 129.589 332.983 130.992C334.48 132.49 335.228 134.502 335.229 137.029V137.871C335.228 138.152 335.181 138.48 335.088 138.854C335.275 138.854 335.51 138.807 335.79 138.713C336.632 138.432 337.52 137.636 338.455 136.326C339.484 135.11 340.466 133.472 341.401 131.413C342.43 129.261 343.412 126.827 344.347 124.113C345.375 121.493 346.265 118.732 347.013 115.831L345.768 113.331L347.16 115.49C342.149 100.297 337.583 88.0013 333.258 78.2776L332.926 77.4074L332.876 77.426C324.159 58.0738 316.394 49.197 307.859 48.1076C307.84 48.1049 307.82 48.1015 307.801 48.0988C306.491 47.8181 305.415 47.724 304.573 47.8176C300.084 48.0985 296.39 50.3449 293.491 54.5559C290.592 58.7673 289.143 64.8512 289.143 72.8059C289.143 77.4848 289.703 81.8837 290.825 86.0012C292.041 90.0252 294.006 93.3477 296.718 95.968C299.43 98.5883 303.078 99.9927 307.66 100.18C311.588 100.273 315.423 99.3375 319.164 97.3723C322.889 95.4156 326.056 92.7615 328.668 89.4133L332.415 99.2082C329.896 102.192 327.304 104.576 324.635 106.357C320.987 108.79 317.34 110.427 313.692 111.27C310.138 112.206 306.631 112.673 303.171 112.673C296.905 112.673 291.152 111.27 285.915 108.462C280.678 105.655 276.47 101.583 273.29 96.2492C270.204 90.9149 268.66 84.4565 268.66 76.8762C268.66 71.5421 269.548 66.5348 271.325 61.8557C273.102 57.1765 275.581 53.0584 278.761 49.5022C282.034 45.946 285.869 43.1382 290.265 41.0793C294.754 39.0205 299.711 37.9914 305.135 37.9914Z" fill="#21242C"/>
<path fill-rule="evenodd" clip-rule="evenodd" d="M35 37.2502C38.92 37.2502 42.7472 37.8099 46.4805 38.9299C50.2137 39.9566 53.574 41.7766 56.5605 44.3899C59.6403 47.0031 62.0666 50.5499 63.8398 55.0295C65.7065 59.5094 66.5933 65.1096 66.5 71.8293L20.5801 72.6701C20.5801 77.7099 21.1871 82.237 22.4004 86.2502C23.707 90.2633 25.807 93.4365 28.7002 95.7697C31.5935 98.1031 35.467 99.2697 40.3203 99.2697C42.187 99.2697 44.2868 98.9426 46.6201 98.2893C49.0468 97.6359 51.4737 96.5629 53.9004 95.0695C56.4203 93.4829 58.7538 91.383 60.9004 88.7697L67.2002 94.6496C63.8402 99.4096 60.2466 103.05 56.4199 105.57C52.5934 107.996 48.767 109.63 44.9404 110.47C41.2071 111.31 37.7534 111.73 34.5801 111.73C27.767 111.73 21.747 110.237 16.5205 107.25C11.2939 104.17 7.23316 99.876 4.33984 94.3694C1.44678 88.7696 4.67176e-05 82.1897 0 74.6301C3.15311e-05 68.0968 1.44654 61.9825 4.33984 56.2893C7.23317 50.5961 11.294 46.0228 16.5205 42.5695C21.8404 39.0231 28.0003 37.2503 35 37.2502ZM35.7002 47.05C31.5936 47.05 28.3734 48.543 26.04 51.5295C23.7068 54.4227 22.1666 58.2029 21.4199 62.8694H47.1807C47.0873 58.9498 46.5266 55.87 45.5 53.6301C44.5667 51.2969 43.26 49.6167 41.5801 48.5901C39.9001 47.5634 37.9402 47.05 35.7002 47.05Z" fill="#21242C"/>
<path fill-rule="evenodd" clip-rule="evenodd" d="M225.401 37.2502C232.121 37.2502 238.141 38.6968 243.461 41.5901C248.781 44.4834 252.982 48.6368 256.062 54.05C259.141 59.3699 260.682 65.7633 260.682 73.2297C260.682 81.0696 259.188 87.8835 256.201 93.6701C253.215 99.4564 249.108 103.936 243.882 107.11C238.655 110.19 232.635 111.73 225.821 111.73C219.101 111.73 213.034 110.283 207.621 107.39C202.208 104.497 197.915 100.389 194.741 95.0695C191.661 89.6563 190.121 83.3094 190.121 76.0295C190.121 68.2831 191.708 61.5162 194.881 55.7297C198.148 49.8498 202.442 45.3229 207.762 42.1496C213.175 38.8831 219.055 37.2502 225.401 37.2502ZM225.121 47.05C221.481 47.1434 218.588 48.4501 216.441 50.9699C214.388 53.4898 212.894 56.663 211.961 60.4895C211.121 64.2227 210.701 68.1436 210.701 72.2502C210.701 77.01 211.215 81.6771 212.241 86.2502C213.268 90.8233 214.902 94.6035 217.142 97.5901C219.475 100.483 222.555 101.883 226.382 101.789C230.115 101.696 232.915 100.389 234.781 97.8694C236.741 95.3494 238.095 92.1763 238.842 88.3498C239.588 84.5232 239.961 80.6496 239.961 76.7297C239.961 73.2764 239.681 69.7763 239.121 66.2297C238.654 62.6831 237.861 59.4628 236.741 56.5695C235.621 53.6764 234.081 51.3428 232.121 49.5695C230.254 47.7964 227.921 46.9567 225.121 47.05Z" fill="#21242C"/>
<path d="M423.4 37.2502C429.374 37.2503 434.32 38.1834 438.24 40.05C442.253 41.8233 445.24 44.2031 447.2 47.1897C449.254 50.083 450.28 53.1633 450.28 56.4299C450.28 59.1366 449.44 61.5635 447.76 63.7102C446.173 65.7633 443.887 66.8365 440.9 66.9299C437.354 67.0232 434.881 66.0434 433.48 63.9904C432.081 61.8439 431.38 59.7902 431.38 57.8303C431.38 56.9903 431.52 56.0099 431.8 54.8899C432.08 53.6767 432.5 52.6034 433.06 51.6701C432.406 50.2702 431.427 49.2434 430.12 48.5901C428.813 47.9367 427.46 47.517 426.06 47.3303C424.753 47.0504 423.68 46.9567 422.84 47.05C418.36 47.3301 414.674 49.57 411.78 53.7697C408.887 57.9697 407.44 64.0366 407.44 71.9699C407.44 76.6366 408 81.0234 409.12 85.1301C410.333 89.1433 412.293 92.4563 415 95.0695C417.707 97.6829 421.347 99.0831 425.92 99.2697C429.84 99.3631 433.667 98.4299 437.4 96.4699C441.133 94.51 444.307 91.8502 446.92 88.4904L453.36 94.7903C450 99.4568 446.5 103.003 442.86 105.43C439.22 107.856 435.58 109.49 431.94 110.33C428.394 111.264 424.894 111.73 421.44 111.73C415.187 111.73 409.446 110.33 404.22 107.53C398.993 104.73 394.793 100.67 391.62 95.3498C388.54 90.03 387 83.5902 387 76.0305C387 70.7105 387.887 65.7167 389.66 61.05C391.433 56.3834 393.907 52.2764 397.08 48.7297C400.347 45.1833 404.173 42.3836 408.56 40.3303C413.04 38.277 417.987 37.2502 423.4 37.2502Z" fill="#21242C"/>
<path fill-rule="evenodd" clip-rule="evenodd" d="M538.074 37.2502C541.994 37.2502 545.821 37.8099 549.555 38.9299C553.288 39.9566 556.647 41.7768 559.634 44.3899C562.714 47.0032 565.141 50.5505 566.914 55.0305C568.781 59.5104 569.668 65.1105 569.574 71.8303L523.654 72.6701C523.654 77.7101 524.261 82.2369 525.475 86.2502C526.781 90.2634 528.881 93.4365 531.774 95.7697C534.668 98.1031 538.541 99.2697 543.395 99.2697C545.261 99.2697 547.361 98.9436 549.694 98.2903C552.121 97.6369 554.548 96.5629 556.975 95.0695C559.494 93.4829 561.828 91.3829 563.975 88.7697L570.274 94.6496C566.914 99.4096 563.321 103.05 559.494 105.57C555.668 107.996 551.841 109.63 548.015 110.47C544.281 111.31 540.828 111.73 537.654 111.73C530.841 111.73 524.82 110.237 519.594 107.25C514.367 104.17 510.307 99.8768 507.414 94.3703C504.521 88.7704 503.074 82.1901 503.074 74.6301C503.074 68.0969 504.521 61.9835 507.414 56.2903C510.307 50.597 514.367 46.0229 519.594 42.5695C524.914 39.0229 531.074 37.2502 538.074 37.2502ZM538.774 47.05C534.668 47.05 531.448 48.5438 529.114 51.5305C526.781 54.4238 525.241 58.2038 524.494 62.8703H550.254C550.161 58.9504 549.601 55.8701 548.574 53.6301C547.641 51.2968 546.334 49.6167 544.654 48.5901C542.974 47.5634 541.014 47.05 538.774 47.05Z" fill="#21242C"/>
<path d="M486.761 86.9504C486.761 88.2571 486.714 90.1236 486.621 92.55C486.528 94.8832 486.388 97.1232 486.201 99.2697C487.788 99.0831 489.468 98.9904 491.241 98.9904C493.014 98.8971 494.367 98.8498 495.301 98.8498V109.49H458.621V100.39C461.234 100.39 463.101 99.8764 464.221 98.8498C465.434 97.8232 466.181 96.3766 466.461 94.51C466.741 92.55 466.881 90.3566 466.881 87.9299V30.3899C466.881 28.7099 466.927 26.7962 467.021 24.6496C467.114 22.4098 467.255 20.2634 467.441 18.2102C465.948 18.3035 464.174 18.3971 462.121 18.4904C460.161 18.4904 458.667 18.5368 457.641 18.6301V7.99045C462.027 7.99045 465.667 7.75687 468.561 7.29025C471.547 6.8236 473.881 6.26289 475.561 5.60959C477.334 4.95626 478.548 4.35026 479.201 3.79025H486.761V86.9504Z" fill="#21242C"/>
<path d="M158.632 37.2502C166.192 37.2502 171.885 39.443 175.712 43.8293C179.632 48.1226 181.593 55.6363 181.593 66.3694V86.9494C181.593 88.2561 181.545 90.1235 181.452 92.55C181.359 94.8832 181.219 97.1232 181.032 99.2697C181.055 99.2669 181.077 99.2637 181.1 99.261C181.059 99.5986 181.024 99.954 180.995 100.327C180.58 105.719 177.223 108.7 173.436 109.489H169.246C165.303 108.671 161.891 105.537 161.891 100.327L161.526 92.4377C161.649 91.0371 161.712 89.5345 161.712 87.9299V66.51C161.619 60.4434 160.592 56.2427 158.632 53.9094C156.765 51.5764 154.245 50.3631 151.072 50.2697C148.646 50.1764 146.359 50.5962 144.212 51.5295C142.159 52.4628 140.292 53.5833 138.612 54.8899C139.079 56.7564 139.406 58.8102 139.593 61.05C139.779 63.2898 139.872 65.6699 139.872 68.1897V86.9494C139.872 88.2561 139.826 90.1235 139.732 92.55C139.639 94.8832 139.499 97.1232 139.312 99.2697C139.332 99.2674 139.351 99.2653 139.37 99.2629C139.33 99.6 139.294 99.9547 139.266 100.327C138.851 105.719 135.493 108.7 131.706 109.489H127.517C123.573 108.671 120.161 105.537 120.161 100.327L119.8 92.508C119.926 91.0875 119.992 89.5614 119.992 87.9299L119.853 66.0901C119.853 60.0238 118.966 55.8701 117.192 53.6301C115.419 51.3902 112.946 50.2235 109.772 50.1301C107.439 50.1301 105.246 50.6435 103.192 51.6701C101.232 52.6968 99.4587 53.9098 97.8721 55.3098V86.9494C97.8721 88.2561 97.8257 90.1235 97.7324 92.55C97.6691 94.132 97.5818 95.6711 97.4756 97.1672C97.2562 98.0338 97.0912 99.0787 96.9951 100.327C96.5803 105.719 93.2229 108.7 89.4355 109.489H85.2461C81.303 108.671 77.8906 105.537 77.8906 100.327L77.582 93.6389C77.8546 91.9062 77.9922 90.0032 77.9922 87.9299V64.4094C77.9922 62.7296 78.0385 60.8629 78.1318 58.8098C78.2252 56.6633 78.3661 54.5632 78.5527 52.51C77.0594 52.6033 75.2857 52.6959 73.2324 52.7893C71.2724 52.7893 69.7786 52.8366 68.752 52.9299V42.2893C73.0451 42.2893 76.6853 42.0567 79.6719 41.5901C82.6584 41.1234 84.9919 40.5627 86.6719 39.9094C88.4451 39.2561 89.6592 38.65 90.3125 38.0901H97.1719C97.3585 39.0233 97.4521 40.1903 97.4521 41.5901C97.5455 42.9898 97.6391 44.1568 97.7324 45.0901C100.906 42.6635 104.312 40.7498 107.952 39.3498C111.685 37.9499 115.186 37.2502 118.452 37.2502C122.745 37.2502 126.293 38.0435 129.093 39.6301C131.892 41.1234 134.133 43.4098 135.812 46.4895C139.172 43.6897 142.859 41.4497 146.872 39.7697C150.979 38.0898 154.899 37.2503 158.632 37.2502Z" fill="#21242C"/>
<path d="M148.412 98.8869L148.408 98.8498H148.412V98.8869Z" fill="#21242C"/>
<path d="M41.7207 0.00997846C43.4005 -0.0832264 44.9873 0.476499 46.4805 1.68967C47.9737 2.99626 48.8133 4.53658 49 6.30978C49.1867 7.98971 48.9068 9.66989 48.1602 11.3498C47.5069 12.9364 46.5272 14.3368 45.2207 15.55L28.2803 30.3899L21.8398 24.6496L33.3203 5.05002C34.3469 3.46345 35.56 2.24936 36.96 1.40939C38.4533 0.476095 40.0407 0.00997846 41.7207 0.00997846Z" fill="#21242C"/>
</svg>
