<svg width="625" height="170" viewBox="0 0 625 170" fill="none" xmlns="http://www.w3.org/2000/svg">
<path d="M397.149 70.7521C393.689 71.1265 391.773 72.4368 391.398 74.6828C391.118 76.9286 391.538 79.2683 392.66 81.7013L406.409 113.147C407.344 110.713 408.56 106.97 410.057 101.916C411.553 96.7691 413.329 91.2004 415.387 85.2111C415.761 83.9946 416.229 82.5909 416.79 81.0002C417.445 79.3157 418.146 77.677 418.895 76.0861C419.643 74.4019 420.438 73.0451 421.279 72.0158L413.283 72.4367V61.7677H438.254V70.7521C435.355 71.4072 432.923 73.1851 430.959 76.0861C429.089 78.9872 427.405 82.5438 425.908 86.755L408.373 136.871C405.754 144.451 403.276 150.675 400.938 155.541C398.599 160.501 395.98 164.152 393.081 166.491C390.182 168.831 386.581 170 382.279 170C378.725 170 375.685 168.924 373.16 166.772C370.729 164.713 369.513 161.952 369.513 158.489C369.513 155.963 370.309 153.716 371.898 151.751C373.582 149.88 375.733 148.896 378.352 148.803C380.409 148.709 382.139 149.365 383.542 150.769C385.038 152.266 385.786 154.278 385.786 156.805V157.648C385.786 157.928 385.74 158.256 385.646 158.63C385.833 158.63 386.067 158.583 386.348 158.489C387.189 158.209 388.078 157.413 389.013 156.103C390.041 154.886 391.024 153.248 391.959 151.19C392.988 149.037 393.97 146.604 394.905 143.89C395.934 141.27 396.822 138.509 397.57 135.608L375.405 91.1076C372.787 85.8672 371.057 81.936 370.215 79.3156C369.467 76.6017 368.952 74.2143 368.672 72.1554H368.666C368.156 68.8881 367.44 65.4677 366.501 61.7677H397.149V70.7521ZM248.598 59.6056C255.331 59.6056 261.364 61.056 266.695 63.9572C272.026 66.8584 276.235 71.0234 279.321 76.4513C282.407 81.7856 283.95 88.1961 283.95 95.6828C283.95 103.544 282.454 110.376 279.461 116.179C276.468 121.981 272.353 126.473 267.116 129.654C261.879 132.743 255.846 134.287 249.019 134.287C242.285 134.287 236.206 132.837 230.781 129.936C225.357 127.035 221.055 122.917 217.875 117.582C214.789 112.154 213.245 105.79 213.245 98.4904C213.245 90.7229 214.836 83.9382 218.016 78.1359C221.289 72.2399 225.591 67.7007 230.922 64.5187C236.346 61.2432 242.238 59.6057 248.598 59.6056ZM477.824 59.6056C483.81 59.6056 488.766 60.5416 492.694 62.4132C496.716 64.1914 499.709 66.5777 501.673 69.5724C503.73 72.4735 504.76 75.5617 504.76 78.8371C504.76 81.551 503.918 83.9844 502.234 86.1369C500.644 88.1958 498.353 89.2728 495.36 89.3664C491.806 89.4599 489.328 88.477 487.925 86.4181C486.522 84.2657 485.82 82.2066 485.82 80.2414C485.82 79.3991 485.961 78.4162 486.241 77.2931C486.522 76.0766 486.943 75.0004 487.504 74.0646C486.849 72.6609 485.868 71.6308 484.559 70.9757C483.249 70.3207 481.893 69.9002 480.49 69.713C479.181 69.4323 478.105 69.3383 477.264 69.4318C472.775 69.7125 469.08 71.9588 466.181 76.1701C463.281 80.3814 461.832 86.4645 461.832 94.4191C461.832 99.0984 462.392 103.498 463.515 107.615C464.73 111.64 466.695 114.962 469.407 117.582C472.119 120.203 475.767 121.607 480.35 121.794C484.278 121.888 488.113 120.952 491.854 118.986C495.594 117.021 498.774 114.354 501.393 110.985L507.846 117.302C504.479 121.981 500.972 125.538 497.324 127.971C493.677 130.404 490.029 132.042 486.382 132.884C482.828 133.82 479.321 134.287 475.86 134.287C469.594 134.287 463.842 132.884 458.604 130.076C453.367 127.269 449.159 123.198 445.979 117.863C442.893 112.529 441.35 106.071 441.35 98.4904C441.35 93.1561 442.238 88.1491 444.015 83.4699C445.792 78.7905 448.27 74.6727 451.45 71.1164C454.724 67.5601 458.558 64.7524 462.954 62.6935C467.443 60.6347 472.4 59.6056 477.824 59.6056ZM592.734 59.6056C596.662 59.6057 600.496 60.1672 604.237 61.2902C607.978 62.3196 611.345 64.1444 614.338 66.7648C617.424 69.3852 619.856 72.9416 621.633 77.4337C623.503 81.9259 624.392 87.5412 624.299 94.2794L578.284 95.1212C578.284 100.175 578.893 104.714 580.108 108.738C581.418 112.763 583.522 115.945 586.421 118.284C589.32 120.624 593.201 121.794 598.064 121.794C599.935 121.794 602.04 121.466 604.378 120.811C606.81 120.156 609.241 119.08 611.673 117.582C614.198 115.991 616.536 113.885 618.688 111.265L625 117.161C621.633 121.934 618.033 125.584 614.198 128.111C610.364 130.544 606.529 132.181 602.694 133.024C598.954 133.866 595.493 134.287 592.313 134.287C585.486 134.287 579.453 132.79 574.216 129.795C568.979 126.707 564.91 122.402 562.011 116.88C559.112 111.265 557.662 104.667 557.662 97.0871C557.662 90.5362 559.112 84.4061 562.011 78.6974C564.91 72.9886 568.978 68.4023 574.216 64.9396C579.547 61.3833 585.72 59.6056 592.734 59.6056ZM353.131 55.5138C360.363 73.8467 364.036 83.1775 361.991 100.063L361.894 100.87L361.298 100.317C355.342 94.7713 351.19 90.9442 346.501 87.6017C341.816 84.2627 336.583 81.3984 328.466 77.8029L327.629 77.4328L328.46 77.049C332.187 75.328 334.941 73.7477 337.221 72.09C336.736 71.5894 336.174 71.1775 335.533 70.8566C334.224 70.2016 332.867 69.7801 331.465 69.5929C330.156 69.3123 329.08 69.2192 328.238 69.3127C323.749 69.5934 320.055 71.8398 317.155 76.0509C314.256 80.2622 312.807 86.3453 312.807 94.3C312.807 98.9792 313.367 103.378 314.489 107.496C315.705 111.52 317.67 114.843 320.382 117.463C323.094 120.083 326.742 121.487 331.324 121.674C335.252 121.767 339.087 120.832 342.828 118.866C346.569 116.901 349.749 114.234 352.367 110.865L358.82 117.182C355.454 121.861 351.946 125.417 348.299 127.851C344.652 130.284 341.004 131.922 337.356 132.764C333.803 133.7 330.295 134.168 326.835 134.168C320.569 134.168 314.817 132.764 309.58 129.956C304.343 127.149 300.134 123.078 296.954 117.743C293.868 112.409 292.324 105.952 292.324 98.3712C292.324 93.037 293.212 88.0299 294.989 83.3507C296.766 78.6716 299.245 74.5534 302.425 70.9972C305.698 67.4411 309.533 64.6332 313.929 62.5744C318.418 60.5156 323.375 59.4855 328.799 59.4855C334.784 59.4855 339.741 60.4216 343.669 62.2931C344.445 62.6361 345.183 63.0025 345.882 63.3908C347.704 61.1567 349.753 58.5593 352.43 55.3986L352.876 54.8703L353.131 55.5138ZM70.9854 61.0089H61.7266C61.7265 55.8618 60.8375 51.978 59.0605 49.3576C57.2836 46.7373 55.0863 45.0055 52.4678 44.1632C49.8492 43.2274 47.277 42.807 44.752 42.9005L39.7012 43.0402C37.7373 43.0402 36.0541 43.3215 34.6514 43.883C33.2485 44.3509 32.173 45.474 31.4248 47.2521C30.6766 48.9366 30.3018 51.6035 30.3018 55.2531V76.3107H46.7158L46.1543 64.0978H56.957V98.2101H47.6973C47.6973 94.2795 47.0898 91.4248 45.874 89.6466C44.6582 87.8685 42.9743 86.7925 40.8232 86.4181C38.7658 85.9502 36.4743 85.763 33.9492 85.8566L30.3018 85.9972V109.019C30.3018 111.546 30.2556 113.933 30.1621 116.179C30.0686 118.425 29.9282 120.156 29.7412 121.372H48.5391C51.3447 121.372 54.0572 120.764 56.6758 119.548C59.2944 118.238 61.4455 116.132 63.1289 113.231C64.8124 110.236 65.6543 106.211 65.6543 101.157H74.7734L74.0713 132.041H0V122.777C2.15107 122.683 3.92818 122.402 5.33105 121.934C6.82735 121.466 7.95008 120.39 8.69824 118.705C9.53986 117.021 9.95993 114.307 9.95996 110.564V56.798C9.95996 54.2712 10.0071 51.8378 10.1006 49.4982C10.2876 47.1585 10.428 45.3799 10.5215 44.1632C9.02511 44.2568 7.15469 44.3509 4.91016 44.4445C2.66556 44.4445 1.02877 44.4915 0 44.5851V33.7755H70.1436L70.9854 61.0089ZM174.678 59.6056C182.253 59.6057 187.958 61.8047 191.793 66.2033C195.721 70.5083 197.685 78.0426 197.685 88.8048V109.441C197.685 110.751 197.637 112.623 197.544 115.056C197.45 117.395 197.31 119.642 197.123 121.794C198.619 121.607 200.256 121.513 202.033 121.513C203.904 121.419 205.307 121.372 206.242 121.372V132.041H170.749V122.917C172.9 122.917 174.444 122.402 175.379 121.372C176.408 120.343 177.062 118.892 177.343 117.021C177.623 115.055 177.764 112.856 177.764 110.423V88.9445C177.67 82.8617 176.642 78.6504 174.678 76.3107C172.807 73.971 170.281 72.7539 167.102 72.6603C164.67 72.5668 162.378 72.9882 160.228 73.924C158.17 74.8598 156.3 75.983 154.616 77.2931C155.084 79.1648 155.412 81.2238 155.599 83.4699C155.786 85.7159 155.879 88.1023 155.879 90.6291V109.441C155.879 110.751 155.832 112.623 155.738 115.056C155.645 117.395 155.504 119.642 155.317 121.794C156.814 121.607 158.451 121.513 160.228 121.513C162.004 121.419 163.408 121.372 164.437 121.372V132.041H128.242V122.917C130.674 122.917 132.404 122.402 133.433 121.372C134.555 120.343 135.257 118.892 135.537 117.021C135.818 115.055 135.958 112.856 135.958 110.423L135.818 88.5236C135.818 82.4405 134.929 78.2755 133.152 76.0294C131.375 73.7835 128.897 72.6142 125.717 72.5207C123.379 72.5207 121.181 73.0353 119.124 74.0646C117.16 75.094 115.383 76.3103 113.793 77.714V109.441C113.793 110.751 113.746 112.623 113.652 115.056C113.559 117.395 113.418 119.642 113.231 121.794C114.728 121.607 116.271 121.513 117.861 121.513C119.451 121.419 120.713 121.372 121.648 121.372V132.041H85.5947V122.917C88.2133 122.917 90.0837 122.402 91.2061 121.372C92.3284 120.343 93.03 118.892 93.3105 117.021C93.6846 115.055 93.8721 112.856 93.8721 110.423V86.839C93.8721 85.1545 93.9192 83.2827 94.0127 81.2238C94.1062 79.0713 94.2465 76.9653 94.4336 74.9064C92.9373 75 91.16 75.0941 89.1025 75.1877C87.1387 75.1877 85.642 75.2347 84.6133 75.3283V64.6593C88.9153 64.6593 92.5629 64.4251 95.5557 63.9572C98.5481 63.4893 100.886 62.9276 102.569 62.2726C104.346 61.6176 105.562 61.0089 106.217 60.4474H113.092C113.279 61.3833 113.372 62.5534 113.372 63.9572C113.466 65.3609 113.559 66.5311 113.652 67.4669C116.832 65.0337 120.246 63.1149 123.894 61.7111C127.635 60.3073 131.142 59.6056 134.415 59.6056C138.717 59.6056 142.271 60.4004 145.077 61.9914C147.883 63.4887 150.127 65.782 151.811 68.8703C155.177 66.0627 158.872 63.8165 162.894 62.132C167.009 60.4475 170.937 59.6056 174.678 59.6056ZM541.315 109.441C541.315 110.751 541.268 112.623 541.175 115.056C541.081 117.395 540.941 119.642 540.754 121.794C542.344 121.607 544.028 121.513 545.805 121.513C547.582 121.419 548.938 121.372 549.873 121.372V132.041H513.117V122.917C515.736 122.917 517.607 122.402 518.729 121.372C519.945 120.343 520.693 118.892 520.974 117.021C521.254 115.055 521.395 112.856 521.395 110.423V52.7267C521.395 51.0422 521.442 49.1233 521.535 46.9709C521.629 44.7249 521.769 42.5726 521.956 40.5138C520.46 40.6074 518.682 40.7005 516.625 40.7941C514.661 40.7941 513.165 40.8411 512.136 40.9347V30.2658C516.531 30.2658 520.179 30.0316 523.078 29.5636C526.071 29.0957 528.409 28.5342 530.093 27.8791C531.869 27.224 533.086 26.6163 533.74 26.0548H541.315V109.441ZM248.317 69.4318C244.67 69.5254 241.77 70.8356 239.619 73.3625C237.562 75.8892 236.066 79.0715 235.131 82.9084C234.289 86.6518 233.868 90.5825 233.868 94.7003C233.868 99.4733 234.382 104.153 235.411 108.738C236.44 113.324 238.077 117.115 240.321 120.11C242.659 123.01 245.746 124.414 249.58 124.32C253.321 124.227 256.127 122.917 257.997 120.39C259.961 117.863 261.317 114.681 262.065 110.844C262.814 107.007 263.187 103.123 263.188 99.1925C263.188 95.7299 262.907 92.2205 262.346 88.6642C261.878 85.1079 261.083 81.8789 259.961 78.9777C258.839 76.0767 257.296 73.7372 255.332 71.9591C253.462 70.181 251.123 69.3382 248.317 69.4318ZM593.436 69.4318C589.321 69.4318 586.094 70.9294 583.756 73.924C581.418 76.8252 579.874 80.6157 579.126 85.2951H604.938C604.845 81.3644 604.285 78.2755 603.256 76.0294C602.321 73.6899 601.011 72.0052 599.327 70.9757C597.644 69.9465 595.68 69.4318 593.436 69.4318ZM47.8379 0.505034C49.5213 -0.0564817 51.1581 -0.149581 52.748 0.22476C54.4315 0.505524 55.8347 1.44141 56.957 3.03238C58.0792 4.62325 58.5464 6.26101 58.3594 7.94546C58.1723 9.63002 57.5649 11.2215 56.5361 12.7189C55.5074 14.1226 54.2443 15.2919 52.748 16.2277L32.8271 26.756L27.7773 19.8781L43.3486 3.31265C44.658 2.00248 46.1545 1.06654 47.8379 0.505034Z" fill="#21242C"/>
</svg>
